<svg xmlns="http://www.w3.org/2000/svg" version="1.1" xmlns:xlink="http://www.w3.org/1999/xlink" xmlns:svgjs="http://svgjs.com/svgjs" width="1440" height="560" preserveAspectRatio="none" viewBox="0 0 1440 560"><g mask="url(&quot;#SvgjsMask1000&quot;)" fill="none"><rect width="1440" height="560" x="0" y="0" fill="#0e2a47"></rect><path d="M0 369.16L10 354.57L20 289.09L30 244.81L40 288.31L50 222.45L60 268.29L70 206.67L80 246.4L90 190.93L100 168.58L110 225.86L120 224.42L130 156.18L140 208.97L150 178.74L160 163.55L170 189.44L180 257.37L190 188.43L200 193.11L210 214.2L220 155.65L230 176.08L240 138.61L250 157.05L260 102.79L270 157.68L280 216.98L290 214.5L300 257.58L310 293.01L320 252.29L330 298.02L340 280.62L350 319.39L360 267.85L370 224.04L380 225.21L390 253.73L400 279L410 220.95L420 188.58L430 159.69L440 143.77L450 81.83L460 55.05L470 80.66L480 43.98L490 39L500 103.57L510 75.25L520 101.64L530 93.23L540 117.73L550 182.86L560 197.64L570 254.85L580 221.13L590 159.44L600 145.17L610 175.92L620 109.65L630 175.1L640 123.46L650 69.64L660 66.96L670 10.29L680 49.61L690 7.5L700 13.1L710 18.64L720 76.27L730 83.05L740 123.37L750 186.11L760 175.85L770 144.73L780 152.41L790 157.62L800 146.59L810 176.29L820 222.32L830 194.8L840 220.27L850 281.43L860 273.04L870 276.6L880 224.28L890 216.47L900 238.56L910 186.08L920 139.64L930 135.77L940 203.26L950 239.86L960 255.87L970 312.25L980 252.84L990 260.54L1000 238.74L1010 226.91L1020 171.62L1030 138.55L1040 169.66L1050 234.08L1060 169.51L1070 113.35L1080 100.58L1090 160.84L1100 200.85L1110 175.62L1120 109.74L1130 98.85L1140 81.4L1150 58.09L1160 72.48L1170 122.52L1180 156.19L1190 177.41L1200 196.97L1210 251.72L1220 194.2L1230 205.12L1240 148.89L1250 209.73L1260 153.96L1270 176.34L1280 236.32L1290 193L1300 180.1L1310 226.66L1320 257.22L1330 271.79L1340 276.55L1350 211.05L1360 197.9L1370 143.14L1380 112.51L1390 44.9L1400 6.93L1410 26.69L1420 57.83L1430 30.8L1440 19.08" stroke="#224b75" stroke-width="2"></path><path d="M0 369.16L10 354.57L20 289.09L30 244.81L40 288.31L50 222.45L60 268.29L70 206.67L80 246.4L90 190.93L100 168.58L110 225.86L120 224.42L130 156.18L140 208.97L150 178.74L160 163.55L170 189.44L180 257.37L190 188.43L200 193.11L210 214.2L220 155.65L230 176.08L240 138.61L250 157.05L260 102.79L270 157.68L280 216.98L290 214.5L300 257.58L310 293.01L320 252.29L330 298.02L340 280.62L350 319.39L360 267.85L370 224.04L380 225.21L390 253.73L400 279L410 220.95L420 188.58L430 159.69L440 143.77L450 81.83L460 55.05L470 80.66L480 43.98L490 39L500 103.57L510 75.25L520 101.64L530 93.23L540 117.73L550 182.86L560 197.64L570 254.85L580 221.13L590 159.44L600 145.17L610 175.92L620 109.65L630 175.1L640 123.46L650 69.64L660 66.96L670 10.29L680 49.61L690 7.5L700 13.1L710 18.64L720 76.27L730 83.05L740 123.37L750 186.11L760 175.85L770 144.73L780 152.41L790 157.62L800 146.59L810 176.29L820 222.32L830 194.8L840 220.27L850 281.43L860 273.04L870 276.6L880 224.28L890 216.47L900 238.56L910 186.08L920 139.64L930 135.77L940 203.26L950 239.86L960 255.87L970 312.25L980 252.84L990 260.54L1000 238.74L1010 226.91L1020 171.62L1030 138.55L1040 169.66L1050 234.08L1060 169.51L1070 113.35L1080 100.58L1090 160.84L1100 200.85L1110 175.62L1120 109.74L1130 98.85L1140 81.4L1150 58.09L1160 72.48L1170 122.52L1180 156.19L1190 177.41L1200 196.97L1210 251.72L1220 194.2L1230 205.12L1240 148.89L1250 209.73L1260 153.96L1270 176.34L1280 236.32L1290 193L1300 180.1L1310 226.66L1320 257.22L1330 271.79L1340 276.55L1350 211.05L1360 197.9L1370 143.14L1380 112.51L1390 44.9L1400 6.93L1410 26.69L1420 57.83L1430 30.8L1440 19.08L1440 560L0 560z" fill="url(#SvgjsLinearGradient1001)"></path></g><defs><mask id="SvgjsMask1000"><rect width="1440" height="560" fill="#ffffff"></rect></mask><linearGradient x1="50%" y1="0%" x2="50%" y2="100%" id="SvgjsLinearGradient1001"><stop stop-opacity="0.65" stop-color="#224b75" offset="0"></stop><stop stop-opacity="0" stop-color="#508dcc" offset="0.8"></stop></linearGradient></defs></svg>